<svg width="20" height="21" viewBox="0 0 20 21" fill="none" xmlns="http://www.w3.org/2000/svg">
<g id="logos:facebook" clip-path="url(#clip0_2395_15033)">
<path id="Vector" d="M20 10.6682C20 5.1454 15.5228 0.668213 10 0.668213C4.47719 0.668213 0 5.14532 0 10.6682C0 15.6595 3.65687 19.7966 8.4375 20.5467V13.5588H5.89844V10.6682H8.4375V8.46509C8.4375 5.95884 9.93047 4.57446 12.2146 4.57446C13.3088 4.57446 14.4531 4.76978 14.4531 4.76978V7.23071H13.1922C11.9498 7.23071 11.5625 8.00157 11.5625 8.79243V10.6682H14.3359L13.8926 13.5588H11.5625V20.5467C16.3431 19.7966 20 15.6595 20 10.6682Z" fill="#1877F2"/>
<path id="Vector_2" d="M13.8926 13.5588L14.3359 10.6682H11.5625V8.79243C11.5625 8.00149 11.9499 7.23071 13.1922 7.23071H14.4531V4.76978C14.4531 4.76978 13.3088 4.57446 12.2146 4.57446C9.93047 4.57446 8.4375 5.95884 8.4375 8.46509V10.6682H5.89844V13.5588H8.4375V20.5467C8.95439 20.6277 9.4768 20.6684 10 20.6682C10.5232 20.6684 11.0456 20.6278 11.5625 20.5467V13.5588H13.8926Z" fill="white"/>
</g>
<defs>
<clipPath id="clip0_2395_15033">
<rect width="20" height="20" fill="white" transform="translate(0 0.668213)"/>
</clipPath>
</defs>
</svg>
