<svg width="21" height="21" viewBox="0 0 21 21" fill="none" xmlns="http://www.w3.org/2000/svg">
<g id="logos:google-icon" clip-path="url(#clip0_2395_10388)">
<path id="Vector" d="M20.4905 10.8553C20.4905 10.0359 20.4224 9.43795 20.2752 8.81787H10.6992V12.5162H16.3201C16.2068 13.4353 15.5948 14.8194 14.2349 15.7495L14.2159 15.8733L17.2436 18.1651L17.4534 18.1856C19.3798 16.4471 20.4905 13.8892 20.4905 10.8553Z" fill="#4285F4"/>
<path id="Vector_2" d="M10.6992 20.5994C13.453 20.5994 15.7648 19.7135 17.4534 18.1855L14.2349 15.7494C13.3737 16.3363 12.2177 16.746 10.6992 16.746C8.00211 16.746 5.71297 15.0076 4.89695 12.6047L4.77734 12.6147L1.62906 14.9953L1.58789 15.1072C3.26508 18.3626 6.71016 20.5994 10.6992 20.5994Z" fill="#34A853"/>
<path id="Vector_3" d="M4.89695 12.6048C4.68164 11.9847 4.55703 11.3203 4.55703 10.6338C4.55703 9.94724 4.68164 9.28289 4.88562 8.66281L4.87992 8.53075L1.69219 6.11182L1.58789 6.16029C0.896641 7.51121 0.5 9.02823 0.5 10.6338C0.5 12.2394 0.896641 13.7563 1.58789 15.1072L4.89695 12.6048Z" fill="#FBBC05"/>
<path id="Vector_4" d="M10.6992 4.52157C12.6144 4.52157 13.9062 5.32989 14.6429 6.00539L17.5213 3.25928C15.7535 1.65371 13.453 0.668213 10.6992 0.668213C6.71016 0.668213 3.26508 2.90493 1.58789 6.16035L4.88563 8.66287C5.71297 6.26005 8.00211 4.52157 10.6992 4.52157Z" fill="#EB4335"/>
</g>
<defs>
<clipPath id="clip0_2395_10388">
<rect width="20" height="20" fill="white" transform="translate(0.5 0.668213)"/>
</clipPath>
</defs>
</svg>
