<svg width="20" height="20" viewBox="0 0 20 20" fill="none" xmlns="http://www.w3.org/2000/svg">
<g id="Group">
<path id="Vector" d="M1 1L19 19M8.5 8.677C8.16306 9.05851 7.98426 9.55413 8.00003 10.0629C8.01579 10.5716 8.22494 11.0552 8.58485 11.4151C8.94477 11.7751 9.42837 11.9842 9.93712 12C10.4459 12.0157 10.9415 11.8369 11.323 11.5" stroke="#4C4C4C" stroke-width="1.5" stroke-linecap="round" stroke-linejoin="round"/>
<path id="Vector_2" d="M5.362 5.561C3.68 6.74 2.279 8.42 1 10C2.889 12.991 6.282 16 10 16C11.55 16 13.043 15.477 14.395 14.65M10 4C14.008 4 16.701 7.158 19 10C18.6705 10.5208 18.3105 11.0216 17.922 11.5" stroke="#4C4C4C" stroke-width="1.5" stroke-linecap="round" stroke-linejoin="round"/>
</g>
</svg>
