<svg width="17" height="17" viewBox="0 0 17 17" fill="none" xmlns="http://www.w3.org/2000/svg">
<g id="Group">
<path id="Vector" d="M8.75 14.75H1.7C1.58065 14.75 1.46619 14.7026 1.3818 14.6182C1.29741 14.5338 1.25 14.4193 1.25 14.3V1.7C1.25 1.58065 1.29741 1.46619 1.3818 1.3818C1.46619 1.29741 1.58065 1.25 1.7 1.25H14.3C14.4193 1.25 14.5338 1.29741 14.6182 1.3818C14.7026 1.46619 14.75 1.58065 14.75 1.7V8.75" stroke="#4C4C4C" stroke-width="1.5" stroke-linecap="round" stroke-linejoin="round"/>
<path id="Vector_2" d="M1.25 11L6.5 8.75L10.625 10.625M11 13.25H13.25M13.25 13.25H15.5M13.25 13.25V11M13.25 13.25V15.5M11 6.5C10.6022 6.5 10.2206 6.34196 9.93934 6.06066C9.65804 5.77936 9.5 5.39782 9.5 5C9.5 4.60218 9.65804 4.22064 9.93934 3.93934C10.2206 3.65804 10.6022 3.5 11 3.5C11.3978 3.5 11.7794 3.65804 12.0607 3.93934C12.342 4.22064 12.5 4.60218 12.5 5C12.5 5.39782 12.342 5.77936 12.0607 6.06066C11.7794 6.34196 11.3978 6.5 11 6.5Z" stroke="#4C4C4C" stroke-width="1.5" stroke-linecap="round" stroke-linejoin="round"/>
</g>
</svg>
