<svg width="20" height="20" viewBox="0 0 20 20" fill="none" xmlns="http://www.w3.org/2000/svg">
<path d="M14.1667 10.4168C14.2772 10.4168 14.3832 10.3729 14.4613 10.2948C14.5394 10.2167 14.5833 10.1107 14.5833 10.0002C14.5833 9.88966 14.5394 9.78367 14.4613 9.70553C14.3832 9.62739 14.2772 9.5835 14.1667 9.5835C14.0562 9.5835 13.9502 9.62739 13.872 9.70553C13.7939 9.78367 13.75 9.88966 13.75 10.0002C13.75 10.1107 13.7939 10.2167 13.872 10.2948C13.9502 10.3729 14.0562 10.4168 14.1667 10.4168ZM10 10.4168C10.1105 10.4168 10.2165 10.3729 10.2946 10.2948C10.3728 10.2167 10.4167 10.1107 10.4167 10.0002C10.4167 9.88966 10.3728 9.78367 10.2946 9.70553C10.2165 9.62739 10.1105 9.5835 10 9.5835C9.88949 9.5835 9.78351 9.62739 9.70537 9.70553C9.62723 9.78367 9.58333 9.88966 9.58333 10.0002C9.58333 10.1107 9.62723 10.2167 9.70537 10.2948C9.78351 10.3729 9.88949 10.4168 10 10.4168ZM5.83333 10.4168C5.94384 10.4168 6.04982 10.3729 6.12796 10.2948C6.2061 10.2167 6.25 10.1107 6.25 10.0002C6.25 9.88966 6.2061 9.78367 6.12796 9.70553C6.04982 9.62739 5.94384 9.5835 5.83333 9.5835C5.72283 9.5835 5.61685 9.62739 5.53871 9.70553C5.46057 9.78367 5.41667 9.88966 5.41667 10.0002C5.41667 10.1107 5.46057 10.2167 5.53871 10.2948C5.61685 10.3729 5.72283 10.4168 5.83333 10.4168Z" fill="#3B368D" stroke="#3B368D" stroke-width="1.5" stroke-linecap="round" stroke-linejoin="round"/>
<path d="M10 18.3334C14.6025 18.3334 18.3333 14.6026 18.3333 10.0001C18.3333 5.39758 14.6025 1.66675 10 1.66675C5.3975 1.66675 1.66667 5.39758 1.66667 10.0001C1.66667 11.5176 2.0725 12.9417 2.78167 14.1667L2.08333 17.9167L5.83333 17.2184C7.09962 17.951 8.5371 18.3356 10 18.3334Z" stroke="#3B368D" stroke-width="1.5" stroke-linecap="round" stroke-linejoin="round"/>
</svg>
