<svg width="20" height="20" viewBox="0 0 20 20" fill="none" xmlns="http://www.w3.org/2000/svg">
<path d="M7.5 7.5L11.25 10L15 7.5M2.5 11.25H4.16667M0.833332 8.75H4.16667" stroke="#3B368D" stroke-width="1.5" stroke-linecap="round" stroke-linejoin="round"/>
<path d="M4.16666 6.25008V5.83341C4.16666 5.39139 4.34226 4.96746 4.65482 4.6549C4.96738 4.34234 5.3913 4.16675 5.83333 4.16675H16.6667C17.1087 4.16675 17.5326 4.34234 17.8452 4.6549C18.1577 4.96746 18.3333 5.39139 18.3333 5.83341V14.1667C18.3333 14.6088 18.1577 15.0327 17.8452 15.3453C17.5326 15.6578 17.1087 15.8334 16.6667 15.8334H5.83333C5.3913 15.8334 4.96738 15.6578 4.65482 15.3453C4.34226 15.0327 4.16666 14.6088 4.16666 14.1667V13.7501" stroke="#3B368D" stroke-width="1.5" stroke-linecap="round"/>
</svg>
