<svg width="21" height="21" viewBox="0 0 21 21" fill="none" xmlns="http://www.w3.org/2000/svg">
<path d="M16.3333 11.75V16.0434C16.3332 16.1314 16.3099 16.2178 16.2657 16.2938C16.2215 16.3699 16.158 16.433 16.0817 16.4767L10.7483 19.525C10.6727 19.5683 10.5871 19.5911 10.5 19.5911C10.4129 19.5911 10.3273 19.5683 10.2517 19.525L4.91833 16.4775C4.84184 16.4338 4.77828 16.3706 4.73408 16.2943C4.68989 16.2181 4.66663 16.1315 4.66666 16.0434V11.3334M10.5 19.25V14.6667M19.6667 7.16671L9.66666 1.33337C7.16666 5.50004 3.83333 3.00004 1.33333 7.16671L11.3333 13" stroke="#063062" stroke-width="1.5" stroke-linecap="round" stroke-linejoin="round"/>
<path d="M11.3333 13.0001C13.8333 8.83341 17.1667 11.3334 19.6667 7.16675" stroke="#4C4C4C" stroke-width="1.5" stroke-linecap="round" stroke-linejoin="round"/>
</svg>
