<svg width="20" height="20" viewBox="0 0 20 20" fill="none" xmlns="http://www.w3.org/2000/svg">
<path d="M10 11.6666C10.442 11.6666 10.866 11.491 11.1785 11.1784C11.4911 10.8659 11.6667 10.4419 11.6667 9.99992C11.6667 9.55789 11.4911 9.13397 11.1785 8.82141C10.866 8.50885 10.442 8.33325 10 8.33325C9.55798 8.33325 9.13405 8.50885 8.82149 8.82141C8.50893 9.13397 8.33334 9.55789 8.33334 9.99992C8.33334 10.4419 8.50893 10.8659 8.82149 11.1784C9.13405 11.491 9.55798 11.6666 10 11.6666Z" stroke="#EBEBF4" stroke-width="1.5" stroke-linecap="round" stroke-linejoin="round"/>
<path d="M17.5 10C15.9258 12.4925 13.0983 15 10 15C6.90167 15 4.07417 12.4925 2.5 10C4.41583 7.63167 6.66 5 10 5C13.34 5 15.5842 7.63167 17.5 10Z" stroke="#EBEBF4" stroke-width="1.5" stroke-linecap="round" stroke-linejoin="round"/>
</svg>
