<svg width="18" height="18" viewBox="0 0 18 18" fill="none" xmlns="http://www.w3.org/2000/svg">
<path d="M9.75 15.75H2.7C2.58065 15.75 2.46619 15.7026 2.3818 15.6182C2.29741 15.5338 2.25 15.4193 2.25 15.3V2.7C2.25 2.58065 2.29741 2.46619 2.3818 2.3818C2.46619 2.29741 2.58065 2.25 2.7 2.25H15.3C15.4193 2.25 15.5338 2.29741 15.6182 2.3818C15.7026 2.46619 15.75 2.58065 15.75 2.7V9.75M12 14.25H14.25M14.25 14.25H16.5M14.25 14.25V12M14.25 14.25V16.5" stroke="#4C4C4C" stroke-width="1.5" stroke-linecap="round" stroke-linejoin="round"/>
<path d="M7.4235 6.38474C7.35511 6.34561 7.27764 6.32512 7.19885 6.32532C7.12005 6.32552 7.04269 6.34641 6.9745 6.3859C6.90631 6.42538 6.84968 6.48208 6.81029 6.55032C6.77089 6.61856 6.7501 6.69595 6.75 6.77474V11.2245C6.74997 11.3034 6.77066 11.3808 6.81001 11.4492C6.84935 11.5175 6.90596 11.5743 6.97417 11.6139C7.04239 11.6535 7.1198 11.6744 7.19866 11.6747C7.27752 11.6749 7.35505 11.6544 7.4235 11.6152L11.316 9.39074C11.3849 9.35139 11.4422 9.29452 11.482 9.2259C11.5218 9.15727 11.5428 9.07934 11.5428 8.99999C11.5428 8.92065 11.5218 8.84271 11.482 8.77409C11.4422 8.70547 11.3849 8.6486 11.316 8.60924L7.4235 6.38474Z" stroke="#4C4C4C" stroke-width="1.5" stroke-linecap="round" stroke-linejoin="round"/>
</svg>
