<svg width="407" height="44" viewBox="0 0 407 44" fill="none" xmlns="http://www.w3.org/2000/svg">
<path d="M6.43211 34.8636C9.02613 35.5519 11.726 35.8961 14.5318 35.8961C17.814 35.8961 20.6198 35.4196 22.9491 34.4666C25.252 33.4342 26.9196 32.0841 28.1107 30.4163C29.2754 28.7221 29.8577 26.8426 29.8577 24.7778C29.8577 22.3953 29.2224 20.4893 27.9519 19.0599C26.6813 17.7098 25.1726 16.6774 23.4256 16.042C21.7315 15.4067 19.561 14.7979 16.9141 14.2155C14.5318 13.739 12.8642 13.2625 11.8319 12.786C10.7996 12.3095 10.2437 11.6742 10.2437 10.7212C10.2437 9.82112 10.6937 9.0799 11.5937 8.49752C12.4672 7.86219 13.8965 7.62394 15.8818 7.62394C18.8993 7.62394 22.0756 8.49752 25.4108 10.2447L28.4283 3.01781C26.7607 2.06482 24.7755 1.27066 22.6315 0.794161C20.408 0.317664 18.1846 0 15.8818 0C12.5466 0 9.74081 0.502968 7.46442 1.5089C5.16157 2.4619 3.49398 3.89139 2.30285 5.55912C1.11172 7.22686 0.63527 9.13285 0.63527 11.1977C0.63527 13.6596 1.19113 15.5655 2.46167 16.9156C3.67927 18.3451 5.18804 19.3775 6.98797 20.0128C8.68202 20.6482 10.8525 21.257 13.4995 21.8394C15.8818 22.3159 17.5493 22.8718 18.5816 23.3483C19.6934 23.8248 20.2492 24.5396 20.2492 25.4926C20.2492 27.3985 18.3699 28.3515 14.6112 28.3515C12.626 28.3515 10.6408 28.0339 8.57615 27.3985C6.51152 26.7632 4.76452 25.969 3.25576 24.9366L0 32.0841C1.66758 33.2753 3.73221 34.1489 6.43211 34.8636Z" fill="#3B368D"/>
<path d="M61.7006 0.714722H52.0922L36.8457 35.1813H46.7718L49.4717 28.5103L52.3304 21.2835L56.7773 10.2446L61.2242 21.2835L64.0829 28.5103L66.7828 35.1813H76.9471L61.7006 0.714722Z" fill="#3B368D"/>
<path d="M86.3967 0.714722V35.1813H112.681V27.4779H96.164V0.714722H86.3967Z" fill="#3B368D"/>
<path d="M150.559 0.714722H123.163V8.25925H150.559V0.714722ZM150.559 14.0566H123.163V21.3629H150.559V14.0566ZM123.163 27.6368V35.1813H150.559V27.6368H123.163Z" fill="#3B368D"/>
<path d="M166.997 34.8636C169.644 35.5519 172.37 35.8961 175.176 35.8961C178.458 35.8961 181.237 35.4196 183.514 34.4666C185.816 33.4342 187.563 32.0841 188.755 30.4163C189.866 28.7221 190.422 26.8426 190.422 24.7778C190.422 22.3953 189.787 20.4893 188.516 19.0599C187.246 17.7098 185.737 16.6774 184.07 16.042C182.323 15.4067 180.152 14.7979 177.558 14.2155C175.176 13.739 173.508 13.2625 172.476 12.786C171.364 12.3095 170.888 11.6742 170.888 10.7212C170.888 9.82112 171.338 9.0799 172.238 8.49752C173.111 7.86219 174.461 7.62394 176.446 7.62394C179.517 7.62394 182.693 8.49752 185.975 10.2447L188.993 3.01781C187.325 2.06482 185.34 1.27066 183.196 0.794161C180.973 0.317664 178.749 0 176.526 0C173.138 0 170.305 0.502968 168.029 1.5089C165.805 2.4619 164.059 3.89139 162.947 5.55912C161.756 7.22686 161.2 9.13285 161.2 11.1977C161.2 13.6596 161.835 15.5655 163.106 16.9156C164.323 18.3451 165.805 19.3775 167.552 20.0128C169.299 20.6482 171.47 21.257 174.064 21.8394C176.446 22.3159 178.114 22.8718 179.226 23.3483C180.258 23.8248 180.814 24.5396 180.814 25.4926C180.814 27.3985 178.934 28.3515 175.176 28.3515C173.27 28.3515 171.205 28.0339 169.22 27.3985C167.155 26.7632 165.329 25.969 163.82 24.9366L160.644 32.0841C162.232 33.2753 164.376 34.1489 166.997 34.8636Z" fill="#3B368D"/>
<path d="M241.641 13.8978L232.668 29.8604L232.747 35.1813H241.72L241.641 13.8978ZM201.619 35.2607H210.671V30.4957L201.619 14.3743V35.2607ZM233.621 0.714722L221.789 20.6482L209.639 0.714722H201.619L210.671 17.4715L219.486 31.8458H223.774L232.668 16.995L241.403 0.714722H233.621Z" fill="#3B368D"/>
<path d="M275.945 0.714722H266.337L251.09 35.1813H261.017L263.716 28.5103L266.575 21.2835L271.022 10.2446L275.469 21.2835L278.328 28.5103L281.028 35.1813H291.192L275.945 0.714722Z" fill="#3B368D"/>
<path d="M323.352 17.2333V26.6838C321.605 27.478 319.938 27.7956 318.032 27.7956C316.126 27.7956 314.459 27.3985 312.95 26.6044C311.521 25.7308 310.329 24.5396 309.535 23.1101C308.662 21.6012 308.265 19.854 308.265 17.948C308.265 15.0096 309.138 12.5477 310.965 10.8006C312.791 9.05343 315.173 8.10044 318.111 8.10044C321.367 8.10044 324.147 9.37109 326.529 11.9124L332.723 6.35328C330.976 4.28847 328.911 2.70015 326.291 1.66774C323.749 0.555912 320.864 0 317.635 0C313.929 0 310.621 0.767688 307.709 2.30307C304.797 3.83844 302.521 5.9562 300.88 8.65635C299.212 11.4359 298.418 14.5331 298.418 17.948C298.418 21.4423 299.212 24.5396 300.88 27.2397C302.521 29.9928 304.797 32.137 307.709 33.6724C310.568 35.1548 313.823 35.8961 317.476 35.8961C320.017 35.8961 322.558 35.5784 325.179 34.7842C327.72 34.043 329.97 32.9577 331.929 31.5282V17.2333H323.352Z" fill="#3B368D"/>
<path d="M344.872 0.714722V35.1813H354.639V0.714722H344.872Z" fill="#3B368D"/>
<path fill-rule="evenodd" clip-rule="evenodd" d="M402.444 42.4876C400.776 43.2023 399.029 43.52 397.044 43.52C395.138 43.52 393.417 43.2817 391.882 42.8053C390.294 42.3288 388.785 41.5346 387.197 40.4228C385.609 39.2315 383.862 37.6432 381.956 35.5784C378.939 35.1019 376.239 34.0695 373.936 32.4018C371.606 30.7605 369.78 28.6957 368.457 26.2073C367.186 23.7189 366.551 20.9658 366.551 17.948C366.551 14.5331 367.345 11.5153 369.012 8.73577C370.68 6.03562 372.983 3.89139 375.842 2.30307C378.78 0.79416 382.115 0 385.768 0C389.421 0 392.676 0.79416 395.535 2.30307C398.473 3.89139 400.697 6.03562 402.444 8.73577C404.085 11.4889 404.905 14.5596 404.905 17.948C404.905 21.8394 403.873 25.3337 401.729 28.2721C399.611 31.237 396.753 33.3547 393.153 34.6254C393.841 35.3666 394.503 35.8696 395.138 36.1343C395.773 36.452 396.461 36.6108 397.203 36.6108C399.188 36.6108 400.855 35.8166 402.444 34.1489L406.732 39.2315C405.54 40.661 404.111 41.6934 402.444 42.4876ZM381.003 26.6044C382.38 27.3985 383.968 27.7956 385.768 27.7956C387.462 27.7956 389.023 27.3985 390.453 26.6044C391.882 25.8102 392.994 24.619 393.867 23.1101C394.582 21.6806 395.059 19.9334 395.059 17.948C395.059 16.042 394.582 14.2949 393.867 12.786C392.994 11.3565 391.882 10.1653 390.453 9.29168C389.023 8.49752 387.435 8.10044 385.768 8.10044C383.941 8.10044 382.433 8.49752 381.003 9.29168C379.574 10.1653 378.462 11.3565 377.668 12.786C376.795 14.2949 376.397 16.042 376.397 17.948C376.397 19.907 376.821 21.6276 377.668 23.1101C378.462 24.619 379.574 25.8102 381.003 26.6044Z" fill="#3B368D"/>
</svg>
