<svg width="407" height="81" viewBox="0 0 407 81" fill="none" xmlns="http://www.w3.org/2000/svg">
<path d="M25.8078 65.5147H27.7931V76.7912H25.8078V65.5147ZM26.8402 61.0676C27.2107 61.0676 27.5019 61.1735 27.7136 61.3853C27.9254 61.65 28.0313 61.9676 28.0313 62.3382C28.0313 62.7088 27.9254 63 27.7136 63.2117C27.5019 63.4765 27.2107 63.6088 26.8402 63.6088C26.4696 63.6088 26.1784 63.4765 25.9667 63.2117C25.702 63 25.5696 62.7088 25.5696 62.3382C25.5696 61.9676 25.702 61.65 25.9667 61.3853C26.1784 61.1735 26.4696 61.0676 26.8402 61.0676Z" fill="#3B368D"/>
<path d="M38.5926 65.4353C39.9161 65.4353 40.9484 65.8324 41.6896 66.6265C42.4307 67.4206 42.8013 68.4794 42.8013 69.8029V76.7912H40.8161V70.3588C40.8161 69.4059 40.5514 68.6647 40.022 68.1353C39.4926 67.6059 38.7779 67.3412 37.878 67.3412C36.8192 67.3412 35.9722 67.6588 35.3369 68.2941C34.7546 68.9294 34.4104 69.75 34.3046 70.7559V76.7912H32.3194V65.5147H34.3046V67.8971C35.0457 66.3088 36.4751 65.4882 38.5926 65.4353Z" fill="#3B368D"/>
<path d="M53.045 76.0765C52.198 76.6059 51.3245 76.8706 50.4246 76.8706C49.5246 76.8706 48.7834 76.6059 48.2011 76.0765C47.6717 75.547 47.407 74.7529 47.407 73.6941V67.4206H45.8188V65.9117H47.407V62.8941H49.3922V65.9117H52.8862V67.4206H49.3922V73.297C49.3922 73.9323 49.4981 74.3823 49.7099 74.647C49.9746 74.9117 50.3187 75.0441 50.7422 75.0441C51.3245 75.0441 51.9068 74.8853 52.4892 74.5676L53.045 76.0765Z" fill="#3B368D"/>
<path fill-rule="evenodd" clip-rule="evenodd" d="M60.4301 65.4353C62.1771 65.4353 63.5005 65.9647 64.4005 67.0235C65.3005 68.0294 65.7504 69.4588 65.7504 71.3118C65.7504 71.5765 65.7504 71.7882 65.7504 71.9471H56.7773C56.9361 72.953 57.3596 73.7471 58.0478 74.3294C58.736 74.9647 59.6095 75.2824 60.6683 75.2824C61.3036 75.2824 61.9124 75.15 62.4947 74.8853C63.077 74.6735 63.5799 74.3294 64.0035 73.8529L65.1152 74.9647C64.5328 75.6 63.8446 76.0765 63.0505 76.3941C62.3094 76.7118 61.4624 76.8706 60.5095 76.8706C59.3977 76.8706 58.3919 76.6324 57.4919 76.1559C56.6449 75.6794 55.9832 75.0177 55.5067 74.1706C55.0303 73.2706 54.792 72.2647 54.792 71.153C54.792 70.0412 55.0303 69.0618 55.5067 68.2147C55.9832 67.3677 56.6449 66.7059 57.4919 66.2294C58.339 65.7 59.3183 65.4353 60.4301 65.4353ZM63.924 70.4382C63.8711 69.3794 63.5535 68.5588 62.9711 67.9765C62.3359 67.3941 61.4888 67.1029 60.4301 67.1029C59.4772 67.1029 58.6566 67.3941 57.9684 67.9765C57.3331 68.6118 56.9361 69.4324 56.7773 70.4382H63.924Z" fill="#3B368D"/>
<path d="M69.165 60.9882H71.1502V76.7912H69.165V60.9882Z" fill="#3B368D"/>
<path d="M75.9148 60.9882H77.9V76.7912H75.9148V60.9882Z" fill="#3B368D"/>
<path d="M82.5851 65.5147H84.5703V76.7912H82.5851V65.5147ZM83.538 61.0676C83.9086 61.0676 84.1997 61.1735 84.4115 61.3853C84.6762 61.65 84.8085 61.9676 84.8085 62.3382C84.8085 62.7088 84.6762 63 84.4115 63.2117C84.1997 63.4765 83.9086 63.6088 83.538 63.6088C83.1674 63.6088 82.8763 63.4765 82.6645 63.2117C82.3998 63 82.2675 62.7088 82.2675 62.3382C82.2675 61.9676 82.3998 61.65 82.6645 61.3853C82.8763 61.1735 83.1674 61.0676 83.538 61.0676Z" fill="#3B368D"/>
<path fill-rule="evenodd" clip-rule="evenodd" d="M99.0227 65.5147V75.6794C99.0227 76.7382 98.7845 77.6647 98.308 78.4588C97.8316 79.3059 97.1434 79.9412 96.2434 80.3647C95.3964 80.7882 94.3905 81 93.2259 81C91.5848 81 90.0495 80.4706 88.6202 79.4118L89.4937 77.9824C90.023 78.4059 90.6054 78.7235 91.2407 78.9353C91.823 79.2 92.4582 79.3324 93.1465 79.3324C94.3111 79.3324 95.2376 78.9882 95.9258 78.3C96.6669 77.6647 97.0375 76.7912 97.0375 75.6794V74.0912C96.614 74.7794 96.0581 75.3353 95.3699 75.7588C94.6817 76.1294 93.9141 76.3147 93.067 76.3147C92.0612 76.3147 91.1612 76.0765 90.3671 75.6C89.5731 75.1235 88.9643 74.4882 88.5408 73.6941C88.1172 72.8471 87.9055 71.8941 87.9055 70.8353C87.9055 69.7765 88.1172 68.85 88.5408 68.0559C88.9643 67.2088 89.5731 66.5735 90.3671 66.15C91.1612 65.6735 92.0612 65.4353 93.067 65.4353C93.967 65.4353 94.7346 65.6206 95.3699 65.9912C96.0581 66.3618 96.614 66.8912 97.0375 67.5794V65.5147H99.0227ZM93.3847 74.6471C94.0729 74.6471 94.7082 74.4882 95.2905 74.1706C95.8199 73.8529 96.2169 73.403 96.4816 72.8206C96.7993 72.2382 96.9581 71.603 96.9581 70.9147C96.9581 70.1735 96.7993 69.5118 96.4816 68.9294C96.2169 68.3471 95.8199 67.8971 95.2905 67.5794C94.7082 67.2618 94.0729 67.1029 93.3847 67.1029C92.6965 67.1029 92.0877 67.2618 91.5583 67.5794C90.976 67.8971 90.526 68.3471 90.2083 68.9294C89.8907 69.5118 89.7319 70.1735 89.7319 70.9147C89.7848 72.0265 90.1289 72.9265 90.7642 73.6147C91.4524 74.303 92.3259 74.6471 93.3847 74.6471Z" fill="#3B368D"/>
<path fill-rule="evenodd" clip-rule="evenodd" d="M107.837 65.4353C109.584 65.4353 110.908 65.9647 111.808 67.0235C112.655 68.0294 113.078 69.4588 113.078 71.3118C113.078 71.5765 113.078 71.7882 113.078 71.9471H104.184C104.343 72.953 104.767 73.7471 105.455 74.3294C106.143 74.9647 106.99 75.2824 107.996 75.2824C108.684 75.2824 109.293 75.15 109.822 74.8853C110.405 74.6735 110.908 74.3294 111.331 73.8529L112.443 74.9647C111.913 75.6 111.252 76.0765 110.458 76.3941C109.663 76.7118 108.79 76.8706 107.837 76.8706C106.725 76.8706 105.746 76.6324 104.899 76.1559C104.052 75.6794 103.364 75.0177 102.834 74.1706C102.411 73.2706 102.199 72.2647 102.199 71.153C102.199 70.0412 102.411 69.0618 102.834 68.2147C103.364 67.3677 104.052 66.7059 104.899 66.2294C105.746 65.7 106.725 65.4353 107.837 65.4353ZM111.331 70.4382C111.278 69.3794 110.934 68.5588 110.299 67.9765C109.663 67.3941 108.843 67.1029 107.837 67.1029C106.831 67.1029 105.984 67.3941 105.296 67.9765C104.661 68.6118 104.29 69.4324 104.184 70.4382H111.331Z" fill="#3B368D"/>
<path d="M122.687 65.4353C124.01 65.4353 125.069 65.8324 125.863 66.6265C126.604 67.4206 126.975 68.4794 126.975 69.8029V76.7912H124.989V70.3588C124.989 69.4059 124.725 68.6647 124.195 68.1353C123.666 67.6059 122.925 67.3412 121.972 67.3412C120.966 67.3412 120.145 67.6588 119.51 68.2941C118.875 68.9294 118.504 69.75 118.398 70.7559V76.7912H116.413V65.5147H118.398V67.8971C119.193 66.3088 120.622 65.4882 122.687 65.4353Z" fill="#3B368D"/>
<path d="M137.139 76.0765C136.292 76.6059 135.418 76.8706 134.518 76.8706C133.618 76.8706 132.904 76.6059 132.374 76.0765C131.792 75.547 131.501 74.7529 131.501 73.6941V67.4206H129.913V65.9117H131.501V62.8941H133.566V65.9117H136.98V67.4206H133.566V73.297C133.566 73.9323 133.671 74.3823 133.883 74.647C134.095 74.9117 134.439 75.0441 134.915 75.0441C135.445 75.0441 136.027 74.8853 136.662 74.5676L137.139 76.0765Z" fill="#3B368D"/>
<path d="M151.909 67.9765C151.485 67.7118 150.983 67.5 150.4 67.3412C149.818 67.1824 149.288 67.1029 148.812 67.1029C148.177 67.1029 147.674 67.2088 147.303 67.4206C146.986 67.6324 146.827 67.9765 146.827 68.453C146.827 68.8765 147.012 69.2206 147.383 69.4853C147.806 69.6971 148.441 69.9353 149.288 70.2C150.03 70.4118 150.665 70.6235 151.194 70.8353C151.671 71.1 152.094 71.4441 152.465 71.8677C152.782 72.2912 152.941 72.8735 152.941 73.6147C152.941 74.6735 152.544 75.4941 151.75 76.0765C150.956 76.6059 149.95 76.8706 148.733 76.8706C147.939 76.8706 147.118 76.7382 146.271 76.4735C145.53 76.2088 144.868 75.8118 144.286 75.2824L145.08 73.8529C145.556 74.2765 146.139 74.6206 146.827 74.8853C147.515 75.15 148.177 75.2824 148.812 75.2824C149.5 75.2824 150.03 75.15 150.4 74.8853C150.824 74.6735 151.035 74.3029 151.035 73.7735C151.035 73.2971 150.824 72.9265 150.4 72.6618C149.977 72.3971 149.341 72.1324 148.494 71.8677C147.7 71.6559 147.065 71.4441 146.589 71.2324C146.112 71.0206 145.715 70.7029 145.397 70.2794C145.08 69.8559 144.921 69.3 144.921 68.6118C144.921 67.5529 145.292 66.7588 146.033 66.2294C146.827 65.7 147.806 65.4353 148.971 65.4353C149.606 65.4353 150.268 65.5412 150.956 65.753C151.591 65.9118 152.174 66.15 152.703 66.4677L151.909 67.9765Z" fill="#3B368D"/>
<path fill-rule="evenodd" clip-rule="evenodd" d="M163.106 76.7912V75.203C162.311 76.3147 161.014 76.8706 159.215 76.8706C158.42 76.8706 157.732 76.7382 157.15 76.4735C156.568 76.1559 156.091 75.7324 155.721 75.203C155.403 74.6735 155.244 74.0912 155.244 73.4559C155.244 72.45 155.615 71.6559 156.356 71.0735C157.15 70.4382 158.209 70.1206 159.532 70.1206H163.106V69.5647C163.106 68.7706 162.867 68.1618 162.391 67.7382C161.914 67.3147 161.2 67.1029 160.247 67.1029C159.082 67.1029 157.918 67.5 156.753 68.2941L155.959 66.9441C156.753 66.4147 157.494 66.0441 158.182 65.8324C158.87 65.5677 159.691 65.4353 160.644 65.4353C162.073 65.4353 163.159 65.7794 163.9 66.4677C164.694 67.1559 165.091 68.1353 165.091 69.4059V76.7912H163.106ZM159.532 75.2824C160.485 75.2824 161.279 75.0441 161.914 74.5677C162.55 74.1441 162.947 73.5618 163.106 72.8206V71.7088H159.77C158.87 71.7088 158.209 71.8412 157.785 72.1059C157.362 72.3706 157.15 72.7941 157.15 73.3765C157.15 73.9588 157.362 74.4088 157.785 74.7265C158.262 75.0971 158.844 75.2824 159.532 75.2824Z" fill="#3B368D"/>
<path d="M169.379 60.9882H171.364V76.7912H169.379V60.9882Z" fill="#3B368D"/>
<path fill-rule="evenodd" clip-rule="evenodd" d="M180.496 65.4353C182.243 65.4353 183.567 65.9647 184.467 67.0235C185.366 68.0294 185.816 69.4588 185.816 71.3118C185.816 71.5765 185.816 71.7882 185.816 71.9471H176.843C177.002 72.953 177.426 73.7471 178.114 74.3294C178.802 74.9647 179.649 75.2824 180.655 75.2824C181.343 75.2824 181.978 75.15 182.561 74.8853C183.143 74.6735 183.646 74.3294 184.069 73.8529L185.181 74.9647C184.599 75.6 183.911 76.0765 183.117 76.3941C182.375 76.7118 181.528 76.8706 180.576 76.8706C179.464 76.8706 178.458 76.6324 177.558 76.1559C176.711 75.6794 176.049 75.0177 175.573 74.1706C175.096 73.2706 174.858 72.2647 174.858 71.153C174.858 70.0412 175.096 69.0618 175.573 68.2147C176.049 67.3677 176.711 66.7059 177.558 66.2294C178.405 65.7 179.384 65.4353 180.496 65.4353ZM183.99 70.4382C183.937 69.3794 183.593 68.5588 182.958 67.9765C182.375 67.3941 181.555 67.1029 180.496 67.1029C179.49 67.1029 178.67 67.3941 178.034 67.9765C177.346 68.6118 176.949 69.4324 176.843 70.4382H183.99Z" fill="#3B368D"/>
<path d="M195.346 67.9765C194.869 67.7118 194.34 67.5 193.757 67.3412C193.228 67.1824 192.699 67.1029 192.169 67.1029C191.587 67.1029 191.11 67.2088 190.74 67.4206C190.369 67.6324 190.184 67.9765 190.184 68.453C190.184 68.8765 190.369 69.2206 190.74 69.4853C191.163 69.6971 191.799 69.9353 192.646 70.2C193.44 70.4118 194.075 70.6235 194.551 70.8353C195.028 71.1 195.451 71.4441 195.822 71.8677C196.193 72.2912 196.378 72.8735 196.378 73.6147C196.378 74.6735 195.954 75.4941 195.107 76.0765C194.313 76.6059 193.334 76.8706 192.169 76.8706C191.322 76.8706 190.502 76.7382 189.708 76.4735C188.913 76.2088 188.252 75.8118 187.722 75.2824L188.437 73.8529C188.913 74.2765 189.496 74.6206 190.184 74.8853C190.872 75.15 191.534 75.2824 192.169 75.2824C192.857 75.2824 193.387 75.15 193.757 74.8853C194.181 74.6735 194.393 74.3029 194.393 73.7735C194.393 73.2971 194.181 72.9265 193.757 72.6618C193.334 72.3971 192.699 72.1324 191.852 71.8677C191.11 71.6559 190.475 71.4441 189.946 71.2324C189.522 71.0206 189.125 70.7029 188.755 70.2794C188.437 69.8559 188.278 69.3 188.278 68.6118C188.278 67.5529 188.649 66.7588 189.39 66.2294C190.184 65.7 191.163 65.4353 192.328 65.4353C193.016 65.4353 193.678 65.5412 194.313 65.753C195.001 65.9118 195.584 66.15 196.06 66.4677L195.346 67.9765Z" fill="#3B368D"/>
<path fill-rule="evenodd" clip-rule="evenodd" d="M211.466 65.4353C212.524 65.4353 213.451 65.6735 214.245 66.15C215.092 66.6265 215.754 67.3147 216.23 68.2147C216.654 69.0618 216.865 70.0412 216.865 71.153C216.865 72.2647 216.654 73.2706 216.23 74.1706C215.754 75.0177 215.118 75.6794 214.324 76.1559C213.477 76.6324 212.524 76.8706 211.466 76.8706C210.513 76.8706 209.692 76.6588 209.004 76.2353C208.263 75.8647 207.68 75.3088 207.257 74.5677V80.9206H205.272V65.5147H207.257V67.7382C207.68 66.9971 208.236 66.4412 208.924 66.0706C209.666 65.6471 210.513 65.4353 211.466 65.4353ZM211.068 75.1235C211.81 75.1235 212.471 74.9647 213.054 74.6471C213.636 74.2765 214.06 73.8 214.324 73.2177C214.695 72.5824 214.88 71.8941 214.88 71.153C214.88 70.3588 214.695 69.6706 214.324 69.0882C214.007 68.4529 213.583 67.9765 213.054 67.6588C212.471 67.2882 211.81 67.1029 211.068 67.1029C210.327 67.1029 209.666 67.2882 209.083 67.6588C208.554 67.9765 208.104 68.4529 207.733 69.0882C207.416 69.6706 207.257 70.3588 207.257 71.153C207.257 71.8941 207.416 72.5824 207.733 73.2177C208.104 73.8 208.554 74.2765 209.083 74.6471C209.666 74.9647 210.327 75.1235 211.068 75.1235Z" fill="#3B368D"/>
<path d="M222.265 67.9765C222.636 67.1294 223.165 66.5206 223.853 66.15C224.541 65.7265 225.336 65.4882 226.236 65.4353V67.3412C225.124 67.3412 224.197 67.6588 223.456 68.2941C222.768 68.9294 222.371 69.7765 222.265 70.8353V76.7912H220.28V65.5147H222.265V67.9765Z" fill="#3B368D"/>
<path fill-rule="evenodd" clip-rule="evenodd" d="M233.779 65.4353C234.891 65.4353 235.87 65.6735 236.718 66.15C237.617 66.6794 238.306 67.3677 238.782 68.2147C239.312 69.0618 239.576 70.0412 239.576 71.153C239.576 72.2647 239.312 73.2441 238.782 74.0912C238.306 74.9912 237.617 75.6794 236.718 76.1559C235.87 76.6324 234.891 76.8706 233.779 76.8706C232.615 76.8706 231.609 76.6324 230.762 76.1559C229.862 75.6794 229.174 75.0177 228.697 74.1706C228.221 73.2706 227.983 72.2647 227.983 71.153C227.983 70.0412 228.221 69.0618 228.697 68.2147C229.174 67.3677 229.862 66.6794 230.762 66.15C231.609 65.6735 232.615 65.4353 233.779 65.4353ZM233.779 67.1824C233.038 67.1824 232.376 67.3677 231.794 67.7382C231.212 68.0559 230.762 68.5324 230.444 69.1677C230.127 69.75 229.968 70.4118 229.968 71.153C229.968 71.9471 230.127 72.6618 230.444 73.2971C230.762 73.8794 231.212 74.3559 231.794 74.7265C232.376 75.0441 233.038 75.203 233.779 75.203C234.468 75.203 235.103 75.0441 235.685 74.7265C236.268 74.3559 236.718 73.8794 237.035 73.2971C237.353 72.6618 237.512 71.9471 237.512 71.153C237.512 70.4118 237.353 69.75 237.035 69.1677C236.718 68.5324 236.268 68.0559 235.685 67.7382C235.103 67.3677 234.468 67.1824 233.779 67.1824Z" fill="#3B368D"/>
<path fill-rule="evenodd" clip-rule="evenodd" d="M253.076 65.4353C254.823 65.4353 256.146 65.9647 257.046 67.0235C257.893 68.0294 258.317 69.4588 258.317 71.3118C258.317 71.5765 258.317 71.7882 258.317 71.9471H249.423C249.582 72.953 250.005 73.7471 250.693 74.3294C251.382 74.9647 252.229 75.2824 253.235 75.2824C253.923 75.2824 254.532 75.15 255.061 74.8853C255.643 74.6735 256.146 74.3294 256.57 73.8529L257.681 74.9647C257.152 75.6 256.49 76.0765 255.696 76.3941C254.902 76.7118 254.029 76.8706 253.076 76.8706C251.964 76.8706 250.985 76.6324 250.138 76.1559C249.291 75.6794 248.602 75.0177 248.073 74.1706C247.649 73.2706 247.438 72.2647 247.438 71.153C247.438 70.0412 247.649 69.0618 248.073 68.2147C248.602 67.3677 249.291 66.7059 250.138 66.2294C250.985 65.7 251.964 65.4353 253.076 65.4353ZM256.57 70.4382C256.517 69.3794 256.173 68.5588 255.537 67.9765C254.902 67.3941 254.082 67.1029 253.076 67.1029C252.07 67.1029 251.223 67.3941 250.535 67.9765C249.899 68.6118 249.529 69.4324 249.423 70.4382H256.57Z" fill="#3B368D"/>
<path d="M267.925 65.4353C269.249 65.4353 270.307 65.8324 271.101 66.6265C271.843 67.4206 272.213 68.4794 272.213 69.8029V76.7912H270.228V70.3588C270.228 69.4059 269.963 68.6647 269.434 68.1353C268.905 67.6059 268.163 67.3412 267.21 67.3412C266.205 67.3412 265.384 67.6588 264.749 68.2941C264.114 68.9294 263.743 69.75 263.637 70.7559V76.7912H261.652V65.5147H263.637V67.8971C264.431 66.3088 265.861 65.4882 267.925 65.4353Z" fill="#3B368D"/>
<path fill-rule="evenodd" clip-rule="evenodd" d="M283.251 76.7912V75.203C282.404 76.3147 281.081 76.8706 279.281 76.8706C278.486 76.8706 277.798 76.7382 277.216 76.4735C276.634 76.1559 276.184 75.7324 275.866 75.203C275.548 74.6735 275.39 74.0912 275.39 73.4559C275.39 72.45 275.76 71.6559 276.501 71.0735C277.242 70.4382 278.275 70.1206 279.598 70.1206H283.251V69.5647C283.251 68.7706 282.986 68.1618 282.457 67.7382C281.98 67.3147 281.266 67.1029 280.313 67.1029C279.201 67.1029 278.063 67.5 276.898 68.2941L276.025 66.9441C276.819 66.4147 277.56 66.0441 278.248 65.8324C278.936 65.5677 279.757 65.4353 280.71 65.4353C282.139 65.4353 283.251 65.7794 284.045 66.4677C284.786 67.1559 285.157 68.1353 285.157 69.4059L285.236 76.7912H283.251ZM279.678 75.2824C280.578 75.2824 281.372 75.0441 282.06 74.5677C282.695 74.1441 283.066 73.5618 283.172 72.8206V71.7088H279.916C279.016 71.7088 278.328 71.8412 277.851 72.1059C277.428 72.3706 277.216 72.7941 277.216 73.3765C277.216 73.9588 277.454 74.4088 277.931 74.7265C278.354 75.0971 278.936 75.2824 279.678 75.2824Z" fill="#3B368D"/>
<path fill-rule="evenodd" clip-rule="evenodd" d="M295.639 65.4353C296.698 65.4353 297.624 65.6735 298.418 66.15C299.265 66.6794 299.9 67.3676 300.324 68.2147C300.8 69.0617 301.039 70.0676 301.039 71.2323C301.039 72.3441 300.8 73.3235 300.324 74.1706C299.9 75.0176 299.265 75.6794 298.418 76.1559C297.624 76.6323 296.698 76.8706 295.639 76.8706C294.686 76.8706 293.865 76.6853 293.177 76.3147C292.436 75.8912 291.854 75.3088 291.43 74.5676V76.7912H289.445V60.9882H291.43V67.7382C291.854 66.997 292.41 66.4412 293.098 66.0706C293.839 65.647 294.686 65.4353 295.639 65.4353ZM295.242 75.1235C295.983 75.1235 296.618 74.9647 297.148 74.647C297.73 74.2765 298.18 73.8 298.498 73.2176C298.815 72.5823 298.974 71.8941 298.974 71.1529C298.974 70.4118 298.815 69.7235 298.498 69.0882C298.18 68.4529 297.73 67.9765 297.148 67.6588C296.618 67.3412 295.983 67.1823 295.242 67.1823C294.501 67.1823 293.839 67.3412 293.257 67.6588C292.674 67.9765 292.224 68.4529 291.907 69.0882C291.589 69.7235 291.43 70.4118 291.43 71.1529C291.43 71.947 291.589 72.6353 291.907 73.2176C292.224 73.8 292.674 74.2765 293.257 74.647C293.839 74.9647 294.501 75.1235 295.242 75.1235Z" fill="#3B368D"/>
<path d="M304.533 60.9882H306.518V76.7912H304.533V60.9882Z" fill="#3B368D"/>
<path fill-rule="evenodd" clip-rule="evenodd" d="M315.729 65.4353C317.476 65.4353 318.8 65.9647 319.7 67.0235C320.547 68.0294 320.97 69.4588 320.97 71.3118C320.97 71.5765 320.97 71.7882 320.97 71.9471H312.076C312.235 72.953 312.659 73.7471 313.347 74.3294C314.035 74.9647 314.882 75.2824 315.888 75.2824C316.576 75.2824 317.185 75.15 317.714 74.8853C318.297 74.6735 318.8 74.3294 319.223 73.8529L320.335 74.9647C319.806 75.6 319.144 76.0765 318.35 76.3941C317.556 76.7118 316.682 76.8706 315.729 76.8706C314.617 76.8706 313.638 76.6324 312.791 76.1559C311.944 75.6794 311.256 75.0177 310.726 74.1706C310.303 73.2706 310.091 72.2647 310.091 71.153C310.091 70.0412 310.303 69.0618 310.726 68.2147C311.256 67.3677 311.944 66.7059 312.791 66.2294C313.638 65.7 314.617 65.4353 315.729 65.4353ZM319.223 70.4382C319.17 69.3794 318.826 68.5588 318.191 67.9765C317.556 67.3941 316.735 67.1029 315.729 67.1029C314.723 67.1029 313.876 67.3941 313.188 67.9765C312.553 68.6118 312.182 69.4324 312.076 70.4382H319.223Z" fill="#3B368D"/>
<path d="M338.917 65.4353C340.187 65.4353 341.193 65.8324 341.934 66.6265C342.675 67.4206 343.046 68.4794 343.046 69.8029V76.7912H341.061V70.3588C341.061 69.4059 340.796 68.6647 340.266 68.1353C339.737 67.6059 339.022 67.3412 338.122 67.3412C337.064 67.3412 336.217 67.7118 335.581 68.453C334.999 69.1941 334.708 70.1206 334.708 71.2324V76.7912H332.723V70.3588C332.723 69.4059 332.458 68.6647 331.929 68.1353C331.399 67.6059 330.685 67.3412 329.785 67.3412C328.726 67.3412 327.879 67.7118 327.243 68.453C326.608 69.1941 326.291 70.1206 326.291 71.2324V76.7912H324.305V65.5147H326.291V67.8971C327.032 66.3088 328.435 65.4882 330.499 65.4353C331.558 65.4353 332.431 65.7 333.12 66.2294C333.808 66.7059 334.258 67.3941 334.47 68.2941C335.211 66.4412 336.693 65.4882 338.917 65.4353Z" fill="#3B368D"/>
<path fill-rule="evenodd" clip-rule="evenodd" d="M351.781 65.4353C353.528 65.4353 354.851 65.9647 355.751 67.0235C356.598 68.0294 357.022 69.4588 357.022 71.3118C357.022 71.5765 357.022 71.7882 357.022 71.9471H348.128C348.287 72.953 348.71 73.7471 349.398 74.3294C350.087 74.9647 350.934 75.2824 351.94 75.2824C352.628 75.2824 353.237 75.15 353.766 74.8853C354.348 74.6735 354.851 74.3294 355.275 73.8529L356.386 74.9647C355.857 75.6 355.195 76.0765 354.401 76.3941C353.607 76.7118 352.734 76.8706 351.781 76.8706C350.669 76.8706 349.69 76.6324 348.843 76.1559C347.996 75.6794 347.307 75.0177 346.778 74.1706C346.355 73.2706 346.143 72.2647 346.143 71.153C346.143 70.0412 346.355 69.0618 346.778 68.2147C347.307 67.3677 347.996 66.7059 348.843 66.2294C349.69 65.7 350.669 65.4353 351.781 65.4353ZM355.275 70.4382C355.222 69.3794 354.878 68.5588 354.242 67.9765C353.607 67.3941 352.787 67.1029 351.781 67.1029C350.775 67.1029 349.928 67.3941 349.24 67.9765C348.604 68.6118 348.234 69.4324 348.128 70.4382H355.275Z" fill="#3B368D"/>
<path d="M366.63 65.4353C367.954 65.4353 369.012 65.8324 369.807 66.6265C370.548 67.4206 370.918 68.4794 370.918 69.8029V76.7912H368.933V70.3588C368.933 69.4059 368.668 68.6647 368.139 68.1353C367.61 67.6059 366.868 67.3412 365.916 67.3412C364.91 67.3412 364.089 67.6588 363.454 68.2941C362.819 68.9294 362.448 69.75 362.342 70.7559V76.7912H360.357V65.5147H362.342V67.8971C363.136 66.3088 364.566 65.4882 366.63 65.4353Z" fill="#3B368D"/>
<path d="M381.162 76.0765C380.262 76.6059 379.362 76.8706 378.462 76.8706C377.562 76.8706 376.847 76.6059 376.318 76.0765C375.736 75.547 375.445 74.7529 375.445 73.6941V67.4206H373.856V65.9117H375.445V62.8941H377.509V65.9117H380.924V67.4206H377.509V73.297C377.509 73.9323 377.615 74.3823 377.827 74.647C378.039 74.9117 378.383 75.0441 378.859 75.0441C379.389 75.0441 379.971 74.8853 380.606 74.5676L381.162 76.0765Z" fill="#3B368D"/>
</svg>
